<?xml version="1.0" encoding="UTF-8" standalone="no"?>
<!-- Created with Inkscape (http://www.inkscape.org/) -->

<svg
   width="44.876751"
   height="23.279535"
   viewBox="0 0 11.87364 6.1593771"
   version="1.1"
   id="svg1958"
   inkscape:version="1.1.1 (26b7af14f2, 2022-01-19)"
   sodipodi:docname="ebelogo_black.svg"
   xmlns:inkscape="http://www.inkscape.org/namespaces/inkscape"
   xmlns:sodipodi="http://sodipodi.sourceforge.net/DTD/sodipodi-0.dtd"
   xmlns="http://www.w3.org/2000/svg"
   xmlns:svg="http://www.w3.org/2000/svg">
  <sodipodi:namedview
     id="namedview890"
     pagecolor="#505050"
     bordercolor="#eeeeee"
     borderopacity="1"
     inkscape:pageshadow="0"
     inkscape:pageopacity="0"
     inkscape:pagecheckerboard="0"
     showgrid="false"
     inkscape:zoom="11.431309"
     inkscape:cx="22.438375"
     inkscape:cy="11.765932"
     inkscape:window-width="1366"
     inkscape:window-height="704"
     inkscape:window-x="0"
     inkscape:window-y="27"
     inkscape:window-maximized="1"
     inkscape:current-layer="layer1" />
  <defs
     id="defs1955" />
  <g
     inkscape:label="Layer 1"
     inkscape:groupmode="layer"
     id="layer1"
     transform="translate(-0.41317977,-3.2316688)">
    <g
       id="g7755"
       transform="matrix(0.0790246,0,0,0.0790246,5.4505416,-20.801986)"
       style="fill:#0e0e0e;fill-opacity:1">
      <path
         style="opacity:1;fill:#0e0e0e;fill-opacity:1;stroke-width:0.227719"
         d="M -24.813949,356.31991 -9.9466378,382.0713 H 35.053713 L 49.921025,356.31991 H 34.672859 l -7.4998,12.99041 H -2.8266608 l -7.5003162,-12.99041 z"
         id="path3049" />
      <path
         style="opacity:1;fill:#0e0e0e;fill-opacity:1;stroke-width:0.227719"
         d="m 1.2396122,336.49011 3.948597,6.83937 -3.684013,6.38049 H 16.752357 l 3.81631,-6.60993 -3.81631,-6.60993 z"
         id="path3047" />
      <path
         style="opacity:1;fill:#0e0e0e;fill-opacity:1;stroke-width:0.227719"
         d="m -28.630253,336.49011 -3.816305,6.60993 3.816305,6.60993 h 14.487487 l -3.684013,-6.38049 3.948597,-6.83937 z"
         id="path3045" />
      <path
         style="opacity:1;fill:#0e0e0e;fill-opacity:1;stroke-width:0.227719"
         d="m -9.9466378,304.12878 -14.8673112,25.7514 h 14.752072 l 7.2352162,-12.53154 H 27.173059 l 7.235216,12.53154 h 15.51275 l -14.867312,-25.7514 z"
         id="path1664" />
    </g>
    <path
       id="path1492"
       style="fill:#0e0e0e;fill-opacity:1;stroke-width:0.024991"
       d="M 2.191227,3.2316688 0.41317977,6.311357 2.191227,9.391046 H 3.3360949 L 2.7538803,8.3826147 1.568502,6.3294892 2.7538803,4.2763633 3.3570443,3.2316688 Z" />
    <path
       id="path1533"
       style="fill:#0e0e0e;fill-opacity:1;stroke-width:0.024991"
       d="M 10.508773,3.2316688 12.28682,6.311357 10.508773,9.391046 H 9.3639057 L 9.9461203,8.3826147 11.131498,6.3294892 9.9461203,4.2763633 9.3429563,3.2316688 Z" />
    <g
       id="g1543"
       transform="matrix(0.0790246,0,0,0.0790246,5.4505416,-20.801986)"
       style="fill:#0e0e0e;fill-opacity:1">
      <path
         style="opacity:1;fill:#0e0e0e;fill-opacity:1;stroke-width:0.227719"
         d="M -24.813949,356.31991 -9.9466378,382.0713 H 35.053713 L 49.921025,356.31991 H 34.672859 l -7.4998,12.99041 H -2.8266608 l -7.5003162,-12.99041 z"
         id="path1535" />
      <path
         style="opacity:1;fill:#0e0e0e;fill-opacity:1;stroke-width:0.227719"
         d="m 1.2396122,336.49011 3.948597,6.83937 -3.684013,6.38049 H 16.752357 l 3.81631,-6.60993 -3.81631,-6.60993 z"
         id="path1537" />
      <path
         style="opacity:1;fill:#0e0e0e;fill-opacity:1;stroke-width:0.227719"
         d="m -28.630253,336.49011 -3.816305,6.60993 3.816305,6.60993 h 14.487487 l -3.684013,-6.38049 3.948597,-6.83937 z"
         id="path1539" />
      <path
         style="opacity:1;fill:#0e0e0e;fill-opacity:1;stroke-width:0.227719"
         d="m -9.9466378,304.12878 -14.8673112,25.7514 h 14.752072 l 7.2352162,-12.53154 H 27.173059 l 7.235216,12.53154 h 15.51275 l -14.867312,-25.7514 z"
         id="path1541" />
    </g>
  </g>
</svg>
